Run_40002
nRows=4
nColumns=173

# SIMM Motion File Header:
name Run_40002
datacolumns 173
datarows 4
otherdata 1
range 1.36000000 1.39000000
endheader
time	pelvis_tilt	pelvis_list	pelvis_rotation	pelvis_tx	pelvis_ty	pelvis_tz	hip_flexion_r	hip_adduction_r	hip_rotation_r	knee_angle_r	ankle_angle_r	hip_flexion_l	hip_adduction_l	hip_rotation_l	knee_angle_l	ankle_angle_l	lumbar_extension	lumbar_bending	lumbar_rotation	arm_flex_r	arm_add_r	arm_rot_r	elbow_flex_r	pro_sup_r	arm_flex_l	arm_add_l	arm_rot_l	elbow_flex_l	pro_sup_l	subtalar_angle_r	mtp_angle_r	subtalar_angle_l	mtp_angle_l	wrist_flex_r	wrist_dev_r	wrist_flex_l	wrist_dev_l	LASI_tx	LASI_ty	LASI_tz	RASI_tx	RASI_ty	RASI_tz	LPSI_tx	LPSI_ty	LPSI_tz	RPSI_tx	RPSI_ty	RPSI_tz	RTH1_tx	RTH1_ty	RTH1_tz	RTH2_tx	RTH2_ty	RTH2_tz	RTH3_tx	RTH3_ty	RTH3_tz	LTH1_tx	LTH1_ty	LTH1_tz	LTH2_tx	LTH2_ty	LTH2_tz	LTH3_tx	LTH3_ty	LTH3_tz	RTB1_tx	RTB1_ty	RTB1_tz	RTB2_tx	RTB2_ty	RTB2_tz	RTB3_tx	RTB3_ty	RTB3_tz	RLMAL_tx	RLMAL_ty	RLMAL_tz	RMMAL_tx	RMMAL_ty	RMMAL_tz	LTB1_tx	LTB1_ty	LTB1_tz	LTB2_tx	LTB2_ty	LTB2_tz	LTB3_tx	LTB3_ty	LTB3_tz	RCAL_tx	RCAL_ty	RCAL_tz	RTOE_tx	RTOE_ty	RTOE_tz	RMT5_tx	RMT5_ty	RMT5_tz	LCAL_tx	LCAL_ty	LCAL_tz	LTOE_tx	LTOE_ty	LTOE_tz	LMT5_tx	LMT5_ty	LMT5_tz	LACR_tx	LACR_ty	LACR_tz	RACR_tx	RACR_ty	RACR_tz	CLAV_tx	CLAV_ty	CLAV_tz	C7_tx	C7_ty	C7_tz	LPSH_tx	LPSH_ty	LPSH_tz	RUA1_tx	RUA1_ty	RUA1_tz	RUA2_tx	RUA2_ty	RUA2_tz	RUA3_tx	RUA3_ty	RUA3_tz	RLEL_tx	RLEL_ty	RLEL_tz	RMEL_tx	RMEL_ty	RMEL_tz	LUA1_tx	LUA1_ty	LUA1_tz	LUA2_tx	LUA2_ty	LUA2_tz	LUA3_tx	LUA3_ty	LUA3_tz	LLEL_tx	LLEL_ty	LLEL_tz	LMEL_tx	LMEL_ty	LMEL_tz	RFAsuperior_tx	RFAsuperior_ty	RFAsuperior_tz	RFAradius_tx	RFAradius_ty	RFAradius_tz	RFAulna_tx	RFAulna_ty	RFAulna_tz	LFAsuperior_tx	LFAsuperior_ty	LFAsuperior_tz	LFAradius_tx	LFAradius_ty	LFAradius_tz	LFAulna_tx	LFAulna_ty	LFAulna_tz
      1.36000000	     -5.43511899	     -2.90309577	     -3.65125616	      0.94351744	      1.04776786	     -0.32456730	     32.27315981	      8.50915300	      4.67919532	    -17.44032881	     -4.03770191	    -18.47339451	      5.10053736	      0.96637162	    -38.86128288	    -16.94958591	     -0.52365081	      4.71565687	    -10.27576003	    -46.00200971	     -9.48352203	    -17.19129591	    111.72988975	     96.10944189	    -16.99053791	    -12.91087135	      5.51390752	    140.12625348	     93.54357352	      0.00000000	      0.00000000	      0.00000000	      0.00000000	      0.00000000	      0.00000000	      0.00000000	      0.00000000	      0.95725117	      1.07906000	     -0.43886582	      0.94777936	      1.09195679	     -0.20874484	      0.79382643	      1.13007088	     -0.38014525	      0.78863357	      1.12674561	     -0.29066303	      0.92737060	      0.84001007	     -0.16067820	      1.02618287	      0.80394675	     -0.17349685	      0.99892662	      0.68762330	     -0.18879046	      0.79361234	      0.88264731	     -0.48844244	      0.81481610	      0.75547185	     -0.46563373	      0.72378925	      0.68602419	     -0.45646933	      1.12617233	      0.47143664	     -0.23606273	      1.09371562	      0.40619396	     -0.19917941	      1.14110889	      0.28987401	     -0.25107771	      1.12232150	      0.16681738	     -0.24352092	      1.14375492	      0.20137880	     -0.32002387	      0.59849816	      0.48552859	     -0.41654696	      0.46565140	      0.51206802	     -0.42592730	      0.42108510	      0.40878939	     -0.38994113	      1.07098939	      0.14408085	     -0.31350329	      1.29332043	      0.14742337	     -0.28238905	      1.22643736	      0.10417249	     -0.21904495	      0.26089631	      0.43743623	     -0.33315486	      0.29725016	      0.21540505	     -0.33633414	      0.24708288	      0.25913249	     -0.39735203	      0.93573904	      1.59601729	     -0.47519080	      0.87487326	      1.56853786	     -0.16866495	      0.97325277	      1.51407480	     -0.28487819	      0.87146685	      1.60538392	     -0.32628464	      0.86055196	      1.55393569	     -0.50616163	      0.75780755	      1.46701074	     -0.10990555	      0.68335641	      1.45066684	     -0.16900338	      0.64195473	      1.40954387	     -0.12993934	      0.60945926	      1.34697707	     -0.10174710	      0.61716372	      1.33331905	     -0.19079938	      0.88537871	      1.46558660	     -0.56216972	      0.82677017	      1.38359797	     -0.56093008	      0.86411346	      1.33991637	     -0.60978963	      0.88289241	      1.26068982	     -0.62498728	      0.82170577	      1.24952751	     -0.55213124	      0.64092427	      1.27302586	     -0.10044655	      0.83410520	      1.22113224	     -0.10466108	      0.80161768	      1.16347216	     -0.09048262	      0.94118099	      1.24681620	     -0.54676564	      1.01900314	      1.36848702	     -0.44709162	      1.04956432	      1.30691952	     -0.43823152
      1.37000000	     -4.49729874	     -3.12136608	     -3.60276303	      0.94467745	      1.04671012	     -0.32459384	     29.60169766	      8.73082253	      4.13338089	    -13.60588715	     -4.64909639	    -17.86894972	      4.74551859	     -0.18550057	    -44.88044614	    -15.94780062	     -1.76004567	      5.17281160	     -9.97801188	    -45.19607850	     -8.97223974	    -17.57842304	    111.55098838	     95.04268210	    -17.51163244	    -13.22205714	      5.41730196	    139.04688068	     93.67517656	      0.00000000	      0.00000000	      0.00000000	      0.00000000	      0.00000000	      0.00000000	      0.00000000	      0.00000000	      0.95799357	      1.07765792	     -0.43939607	      0.94846292	      1.09136013	     -0.20865587	      0.79342471	      1.12659897	     -0.38046314	      0.78872369	      1.12307038	     -0.29140405	      0.92411713	      0.83552081	     -0.15818713	      1.02097723	      0.79515263	     -0.17402010	      0.99219849	      0.68077360	     -0.18918777	      0.79691439	      0.87844583	     -0.48756750	      0.82079253	      0.75136719	     -0.46658408	      0.73181755	      0.68003104	     -0.45551235	      1.12099868	      0.46562112	     -0.23793327	      1.09103939	      0.39900736	     -0.20156196	      1.14247830	      0.28494937	     -0.25463991	      1.12721708	      0.16137295	     -0.24833637	      1.14862304	      0.19733585	     -0.32426495	      0.60466669	      0.48498010	     -0.41682975	      0.47403154	      0.52265967	     -0.42479937	      0.42168195	      0.42284529	     -0.39117793	      1.07743974	      0.13800914	     -0.31974960	      1.29922366	      0.14688097	     -0.28563686	      1.23278309	      0.10140001	     -0.22380820	      0.26390994	      0.46234329	     -0.33283511	      0.28527048	      0.23852214	     -0.34148890	      0.23800715	      0.28702612	     -0.40121981	      0.93753544	      1.59432635	     -0.47306811	      0.87709975	      1.56544100	     -0.16704517	      0.97395829	      1.51094164	     -0.28410278	      0.87233641	      1.60325260	     -0.32435495	      0.86184537	      1.55358571	     -0.50439080	      0.76031435	      1.46242265	     -0.10863009	      0.68588226	      1.44614847	     -0.16763302	      0.64525280	      1.40363379	     -0.12938454	      0.61328139	      1.34054442	     -0.10181395	      0.62201192	      1.32797176	     -0.19184109	      0.88564058	      1.46586598	     -0.56132810	      0.82576851	      1.38482301	     -0.56070377	      0.86246216	      1.34109253	     -0.61022503	      0.87981433	      1.26170231	     -0.62631192	      0.81914365	      1.25035947	     -0.55386329	      0.64514932	      1.26671022	     -0.10040624	      0.83898565	      1.21649324	     -0.10239324	      0.80677774	      1.15837399	     -0.08973898	      0.93835789	      1.24393583	     -0.54898017	      1.02050563	      1.36078951	     -0.44644817	      1.04935533	      1.29818424	     -0.43970617
      1.38000000	     -3.86151896	     -3.60243651	     -3.39055219	      0.94557118	      1.04422657	     -0.32480984	     27.65542234	      9.21129950	      2.95460141	    -11.41150307	     -5.27945226	    -16.64382693	      3.91415427	     -1.24817126	    -51.24122611	    -14.83537426	     -2.63920322	      5.93532265	     -9.78592714	    -44.20218643	     -8.68384403	    -17.77831567	    111.21838524	     93.93433372	    -18.19260078	    -13.53862309	      5.33792968	    137.65767562	     93.75935186	      0.00000000	      0.00000000	      0.00000000	      0.00000000	      0.00000000	      0.00000000	      0.00000000	      0.00000000	      0.95838182	      1.07467587	     -0.44027894	      0.94931459	      1.08985608	     -0.20926575	      0.79339543	      1.12202150	     -0.38077054	      0.78920576	      1.11903086	     -0.29203976	      0.92091664	      0.83063370	     -0.15644209	      1.01675813	      0.78727928	     -0.17425216	      0.98710755	      0.67436149	     -0.18940292	      0.79928034	      0.87258669	     -0.48625519	      0.82705558	      0.74579759	     -0.46786127	      0.74061165	      0.67243079	     -0.45477348	      1.11493546	      0.45966650	     -0.23952927	      1.08575330	      0.39213372	     -0.20401554	      1.13924464	      0.27938703	     -0.25801524	      1.12515201	      0.15517021	     -0.25367816	      1.14735048	      0.19223229	     -0.32816708	      0.61314491	      0.48307491	     -0.41747617	      0.48545558	      0.53108833	     -0.42429087	      0.42605866	      0.43519912	     -0.39219835	      1.07675828	      0.13277792	     -0.32624496	      1.29800740	      0.14261295	     -0.28841882	      1.23112110	      0.09512843	     -0.22896351	      0.27154597	      0.48532202	     -0.33204388	      0.27743545	      0.26106135	     -0.34716507	      0.23448006	      0.31440749	     -0.40592540	      0.93907403	      1.59129188	     -0.47113682	      0.87928959	      1.56105893	     -0.16549155	      0.97460906	      1.50670280	     -0.28353838	      0.87310460	      1.59991609	     -0.32255676	      0.86286732	      1.55186299	     -0.50263018	      0.76328522	      1.45625270	     -0.10688764	      0.68847573	      1.43975852	     -0.16526590	      0.64916735	      1.39570923	     -0.12749468	      0.61799517	      1.33206426	     -0.10055950	      0.62722137	      1.32068108	     -0.19235202	      0.88545973	      1.46515037	     -0.56070997	      0.82426305	      1.38524082	     -0.56078220	      0.86017302	      1.34144077	     -0.61093070	      0.87582612	      1.26191286	     -0.62802123	      0.81567121	      1.25039137	     -0.55589251	      0.65042437	      1.25848889	     -0.09920707	      0.84492693	      1.21022759	     -0.10007749	      0.81314951	      1.15166518	     -0.08877171	      0.93458111	      1.23963171	     -0.55203118	      1.02155207	      1.35067394	     -0.44642016	      1.04829221	      1.28696306	     -0.44201118
      1.39000000	     -3.51202660	     -4.18049180	     -3.03898442	      0.94597622	      1.04025544	     -0.32524392	     26.38089228	      9.78904911	      1.80325057	    -10.72563561	     -6.07516289	    -14.81934357	      2.86005053	     -2.00298147	    -57.80218591	    -13.55611799	     -3.17542836	      6.82017394	     -9.67222687	    -42.98475345	     -8.64997701	    -17.75914741	    110.74395711	     92.95335630	    -18.99492368	    -13.89909773	      5.27466388	    135.99573076	     93.66814838	      0.00000000	      0.00000000	      0.00000000	      0.00000000	      0.00000000	      0.00000000	      0.00000000	      0.00000000	      0.95833376	      1.07017947	     -0.44135813	      0.95003564	      1.08681114	     -0.21044312	      0.79341583	      1.11643517	     -0.38086030	      0.78948768	      1.11455034	     -0.29210429	      0.91858519	      0.82567208	     -0.15599605	      1.01401467	      0.78095045	     -0.17479713	      0.98330818	      0.66851741	     -0.18967188	      0.80134562	      0.86502609	     -0.48470071	      0.83383568	      0.73894179	     -0.46932609	      0.75041452	      0.66346961	     -0.45451428	      1.10805588	      0.45282074	     -0.24093318	      1.07807033	      0.38497199	     -0.20637467	      1.13184277	      0.27237448	     -0.26080974	      1.11690395	      0.14726244	     -0.25853561	      1.14018315	      0.18514806	     -0.33161280	      0.62388668	      0.47996279	     -0.41845216	      0.49969685	      0.53716368	     -0.42462350	      0.43407097	      0.44562622	     -0.39298962	      1.06925272	      0.12710454	     -0.33162190	      1.29012793	      0.13353580	     -0.29155528	      1.22222229	      0.08458422	     -0.23412112	      0.28337275	      0.50573924	     -0.33106173	      0.27451070	      0.28230116	     -0.35289133	      0.23685212	      0.34013187	     -0.41100524	      0.94006589	      1.58699291	     -0.46958686	      0.88138510	      1.55537906	     -0.16392687	      0.97524505	      1.50147364	     -0.28313246	      0.87374594	      1.59531406	     -0.32095511	      0.86334911	      1.54861244	     -0.50091035	      0.76672626	      1.44837376	     -0.10469225	      0.69117903	      1.43139883	     -0.16191227	      0.65367922	      1.38573889	     -0.12435341	      0.62351795	      1.32156966	     -0.09802740	      0.63265041	      1.31083239	     -0.19059057	      0.88459116	      1.46331491	     -0.56028224	      0.82217295	      1.38465745	     -0.56110696	      0.85717075	      1.34081653	     -0.61189979	      0.87094931	      1.26123858	     -0.63012446	      0.81125996	      1.24956690	     -0.55817352	      0.65673017	      1.24840305	     -0.09691949	      0.85194481	      1.20251541	     -0.09781808	      0.82073932	      1.14348891	     -0.08752679	      0.92978139	      1.23398324	     -0.55591624	      1.02191673	      1.33819390	     -0.44722312	      1.04604985	      1.27341423	     -0.44522957
